#N canvas 91 80 1586 885 10;
#X obj 67 461 qlist;
#X msg 155 240 rewind;
#X msg 166 265 next;
#X msg 144 216 bang;
#X text 229 330 set relative tempo;
#X text 215 239 go to beginning (and stop);
#X text 215 266 single-step forward;
#X text 196 106 read a file;
#X msg 85 154 clear;
#X text 129 155 empty the qlist;
#X msg 75 132 print;
#X text 119 130 print contents to Pd window;
#X floatatom 533 160 5 0 0 0 - - -;
#X floatatom 632 230 5 0 0 0 - - -;
#X obj 533 239 osc~;
#X obj 534 186 mtof;
#X floatatom 533 213 5 0 0 0 - - -;
#X obj 575 343 *~;
#X obj 567 460 dac~;
#X obj 595 374 hsl 128 15 0 1 0 0 empty empty empty -2 -8 0 10 -262144
-1 -1 0 1;
#X obj 21 20 tgl 15 0 empty empty empty 17 7 0 10 -262144 -1 -1 0 1
;
#X msg 21 44 \; pd dsp \$1;
#X floatatom 591 394 5 0 0 0 - - -;
#X msg 193 356 tempo \$1;
#X floatatom 193 330 5 0 0 0 - - -;
#X text 181 216 Start and play through sequence;
#X obj 533 133 r pitch;
#X obj 632 202 r amp;
#X obj 632 254 sig~;
#X obj 951 241 noise~;
#X obj 971 306 *~;
#X obj 576 417 *~;
#X floatatom 1127 157 5 0 0 0 - - -;
#X obj 1074 247 vline~;
#X obj 1076 146 tgl 15 0 empty empty empty 17 7 0 10 -262144 -1 -1
0 1;
#X obj 1076 181 metro 100;
#X obj 962 418 dac~;
#X obj 990 332 hsl 128 15 0 1 0 0 empty empty empty -2 -8 0 10 -262144
-1 -1 0 1;
#X floatatom 986 352 5 0 0 0 - - -;
#X obj 971 375 *~;
#X msg 1076 214 1 10 \, 0 10 10;
#X msg 69 105 read SonScript.txt;
#X obj 1127 125 r tmpo;
#X floatatom 1404 148 5 0 0 0 - - -;
#X floatatom 1449 199 5 0 0 0 - - -;
#X obj 1333 461 dac~;
#X obj 1361 375 hsl 128 15 0 1 0 0 empty empty empty -2 -8 0 10 -262144
-1 -1 0 1;
#X floatatom 1357 395 5 0 0 0 - - -;
#X obj 1342 418 *~;
#X obj 1384 230 osc~;
#X obj 1318 346 osc~;
#X obj 1384 263 *~;
#X obj 1318 318 +~;
#X floatatom 1444 233 5 0 0 0 - - -;
#X obj 1386 202 * 1;
#X obj 1404 122 r mPtch;
#X obj 1449 171 r mAmp;
#X floatatom 1316 137 5 0 0 0 - - -;
#X text 517 84 Mapping: Stock Price (=Pitch) and Trading Volume (=Amplitude)
;
#X text 927 85 Mapping: Stock Price (= Tempo);
#X text 1276 71 Mapping: Stock Low v High (= FM Modulation);
#X text 1286 116 carrier freq;
#X connect 1 0 0 0;
#X connect 2 0 0 0;
#X connect 3 0 0 0;
#X connect 8 0 0 0;
#X connect 10 0 0 0;
#X connect 12 0 15 0;
#X connect 13 0 28 0;
#X connect 14 0 17 0;
#X connect 15 0 16 0;
#X connect 16 0 14 0;
#X connect 17 0 31 0;
#X connect 19 0 22 0;
#X connect 20 0 21 0;
#X connect 22 0 31 1;
#X connect 23 0 0 0;
#X connect 24 0 23 0;
#X connect 26 0 12 0;
#X connect 27 0 13 0;
#X connect 28 0 17 1;
#X connect 29 0 30 0;
#X connect 30 0 39 0;
#X connect 31 0 18 0;
#X connect 31 0 18 1;
#X connect 32 0 35 1;
#X connect 33 0 30 1;
#X connect 34 0 35 0;
#X connect 35 0 40 0;
#X connect 37 0 38 0;
#X connect 38 0 39 1;
#X connect 39 0 36 0;
#X connect 39 0 36 1;
#X connect 40 0 33 0;
#X connect 41 0 0 0;
#X connect 42 0 32 0;
#X connect 43 0 54 0;
#X connect 44 0 53 0;
#X connect 46 0 47 0;
#X connect 47 0 48 1;
#X connect 48 0 45 0;
#X connect 48 0 45 1;
#X connect 49 0 51 0;
#X connect 50 0 48 0;
#X connect 51 0 52 1;
#X connect 52 0 50 0;
#X connect 53 0 51 1;
#X connect 54 0 49 0;
#X connect 55 0 43 0;
#X connect 56 0 44 0;
#X connect 57 0 52 0;
#X connect 57 0 54 1;
